<svg width="117" height="117" viewBox="0 0 117 117" fill="none" xmlns="http://www.w3.org/2000/svg">
<path fill-rule="evenodd" clip-rule="evenodd" d="M58.5 0C90.8091 0 117 26.1909 117 58.5C117 90.8091 90.8091 117 58.5 117C26.1909 117 0 90.8091 0 58.5C0 26.1909 26.1909 0 58.5 0ZM32.6186 60.0563C33.4035 55.5055 38.5978 52.9717 42.6965 55.4373C43.0682 55.6591 43.4228 55.9223 43.7531 56.2246L43.7848 56.2551C45.6239 58.0174 47.6848 59.8516 49.7274 61.67L51.48 63.2434L72.2755 41.4302C73.5174 40.1298 74.4254 39.2888 76.2889 38.8696C82.669 37.4619 87.1553 45.2607 82.6337 50.0273L56.7157 77.2273C54.2746 79.8318 49.9115 80.0694 47.2875 77.582C45.7836 76.1853 44.148 74.7642 42.4942 73.3298C39.6301 70.8411 36.7088 68.3024 34.3273 65.7893C32.8977 64.361 32.281 62.0222 32.6186 60.0563Z" fill="#00860D"/>
</svg>
