<svg width="22" height="21" viewBox="0 0 22 21" fill="none" xmlns="http://www.w3.org/2000/svg">
<path d="M10.5 0C4.70162 0 0 4.70069 0 10.4995C0 16.2984 4.70116 20.9991 10.5 20.9991C16.2993 20.9991 21 16.2984 21 10.4995C21 4.70069 16.2993 0 10.5 0ZM10.5 3.13948C12.4187 3.13948 13.9734 4.6947 13.9734 6.61243C13.9734 8.53061 12.4187 10.0854 10.5 10.0854C8.58227 10.0854 7.02752 8.53061 7.02752 6.61243C7.02752 4.6947 8.58227 3.13948 10.5 3.13948ZM10.4977 18.2539C8.58412 18.2539 6.8315 17.557 5.47968 16.4035C5.15038 16.1227 4.96036 15.7108 4.96036 15.2786C4.96036 13.3337 6.53448 11.7771 8.47988 11.7771H12.521C14.4669 11.7771 16.035 13.3337 16.035 15.2786C16.035 15.7113 15.8459 16.1222 15.5162 16.4031C14.1648 17.557 12.4117 18.2539 10.4977 18.2539Z" fill="black"/>
</svg>
