<svg width="28" height="28" viewBox="0 0 28 28" fill="none" xmlns="http://www.w3.org/2000/svg">
<path d="M16.0063 9.12897H8.4193V9.6709H16.0063V9.12897Z" fill="black"/>
<path d="M6.84824 9.94186C7.14754 9.94186 7.39017 9.69923 7.39017 9.39993C7.39017 9.10063 7.14754 8.858 6.84824 8.858C6.54894 8.858 6.30631 9.10063 6.30631 9.39993C6.30631 9.69923 6.54894 9.94186 6.84824 9.94186Z" fill="black"/>
<path d="M16.0063 11.8386H8.4193V12.3806H16.0063V11.8386Z" fill="black"/>
<path d="M6.84824 12.6515C7.14754 12.6515 7.39017 12.4089 7.39017 12.1096C7.39017 11.8103 7.14754 11.5677 6.84824 11.5677C6.54894 11.5677 6.30631 11.8103 6.30631 12.1096C6.30631 12.4089 6.54894 12.6515 6.84824 12.6515Z" fill="black"/>
<path d="M6.84824 15.3611C7.14754 15.3611 7.39017 15.1185 7.39017 14.8192C7.39017 14.5199 7.14754 14.2773 6.84824 14.2773C6.54894 14.2773 6.30631 14.5199 6.30631 14.8192C6.30631 15.1185 6.54894 15.3611 6.84824 15.3611Z" fill="black"/>
<path d="M12.7547 17.2579H8.4193V17.7998H12.7547V17.2579Z" fill="black"/>
<path d="M6.84824 18.0708C7.14754 18.0708 7.39017 17.8281 7.39017 17.5288C7.39017 17.2295 7.14754 16.9869 6.84824 16.9869C6.54894 16.9869 6.30631 17.2295 6.30631 17.5288C6.30631 17.8281 6.54894 18.0708 6.84824 18.0708Z" fill="black"/>
<path d="M24.08 7.80366L23.3137 7.03737L22.8346 7.51644L22.6431 7.32487L21.8966 8.04319L19.2579 10.6545V6.14834C19.2579 4.35536 17.8546 2.89676 16.0616 2.89676H15.7354V2.62579C15.7354 2.32773 15.5468 2.08386 15.2487 2.08386H12.2681C12.2681 1.4853 11.7828 1 11.1842 1C10.5857 1 10.1004 1.4853 10.1004 2.08386H7.11975C6.82169 2.08386 6.52255 2.32773 6.52255 2.62579V2.89676H6.30686C4.51388 2.89676 3 4.35536 3 6.14834V19.6966C3 21.4896 4.51388 22.9482 6.30686 22.9482H16.0616C17.8546 22.9482 19.2579 21.4896 19.2579 19.6966V12.9534L22.807 9.39992H22.8208L23.786 8.45804L23.5977 8.27433L24.08 7.80366ZM11.1842 1.54193C11.4834 1.54193 11.7262 1.78471 11.7262 2.08386C11.7262 2.38301 11.4834 2.62579 11.1842 2.62579C10.8851 2.62579 10.6423 2.38301 10.6423 2.08386C10.6423 1.78471 10.8851 1.54193 11.1842 1.54193ZM18.174 19.6966C18.174 20.8918 17.2568 21.8643 16.0616 21.8643H6.30686C5.11163 21.8643 4.08386 20.8918 4.08386 19.6966V6.14834C4.08386 4.95311 5.11163 3.98062 6.30686 3.98062H6.57782L6.30686 5.06448C6.30686 5.36254 6.55073 5.60641 6.84879 5.60641H15.5197C15.8177 5.60641 16.0616 5.36254 16.0616 5.06448L15.7906 3.98062H16.0616C17.2568 3.98062 18.174 4.95311 18.174 6.14834V11.7383L15.4197 14.5483H8.4193V15.0902H14.8778L14.2605 15.7074L13.7814 16.7612L13.3021 17.8153L15.3823 16.8569L18.174 14.0372V19.6966ZM14.9856 16.816L14.1955 17.1753L13.9418 16.9219L14.3011 16.1315L14.9309 16.761L14.9856 16.816ZM22.8823 9.00106L22.116 8.23477L22.6022 7.74893L22.5474 7.80366L23.3134 8.56968L23.4094 8.47376L22.8823 9.00106Z" fill="black"/>
</svg>
