<svg width="18" height="19" viewBox="0 0 18 19" fill="none" xmlns="http://www.w3.org/2000/svg">
<path d="M9.79492 0.329275C9.35671 -0.109758 8.64287 -0.109758 8.20465 0.329275L0.493497 8.04043C0.175367 8.35897 0 8.78233 0 9.2321V17.3856C0 18.0054 0.504643 18.5096 1.12441 18.5096H7.242C7.4054 18.5096 7.53786 18.3775 7.53786 18.2141V14.054C7.53786 13.8634 7.57293 13.6835 7.64472 13.511C7.86177 12.9532 8.39364 12.5917 8.99979 12.5917C9.39633 12.5917 9.76232 12.7435 10.033 13.0208C10.1758 13.1644 10.2872 13.3328 10.3582 13.5176C10.4271 13.6827 10.4617 13.8626 10.4617 14.054V18.2141C10.4617 18.3775 10.5942 18.5096 10.7576 18.5096H16.8752C17.4954 18.5096 18 18.0054 18 17.3856V9.2321C18 8.78151 17.8246 8.35898 17.5061 8.04043L9.79492 0.329275ZM1.40046 15.8085V15.0575C1.40046 14.8941 1.53291 14.7621 1.69631 14.7621C1.85971 14.7621 1.99217 14.8941 1.99217 15.0575V15.8085C1.99217 15.9719 1.85971 16.104 1.69631 16.104C1.53291 16.104 1.40046 15.9719 1.40046 15.8085ZM1.99216 13.6554C1.99216 13.8188 1.8597 13.9509 1.6963 13.9509C1.5329 13.9509 1.40045 13.8188 1.40045 13.6554V10.5277C1.40045 10.3643 1.5329 10.2323 1.6963 10.2323C1.8597 10.2323 1.99216 10.3643 1.99216 10.5277V13.6554Z" fill="black"/>
</svg>
